<mxfile host="Electron" agent="Mozilla/5.0 (Windows NT 10.0; Win64; x64) AppleWebKit/537.36 (KHTML, like Gecko) draw.io/26.0.9 Chrome/128.0.6613.186 Electron/32.2.5 Safari/537.36" version="26.0.9">
  <diagram name="Page-1" id="hoj2Rj-NFWrG-b91s_Sq">
    <mxGraphModel dx="2643" dy="1045" grid="1" gridSize="10" guides="1" tooltips="1" connect="1" arrows="1" fold="1" page="1" pageScale="1" pageWidth="850" pageHeight="1100" math="0" shadow="0">
      <root>
        <mxCell id="0" />
        <mxCell id="1" parent="0" />
        <mxCell id="iMFo7XsTxFiOWqYlgWQJ-1" value="&lt;h1&gt;Vejhaan App&lt;/h1&gt;" style="ellipse;shape=cloud;whiteSpace=wrap;html=1;strokeWidth=1;perimeterSpacing=1;" vertex="1" parent="1">
          <mxGeometry x="-310" y="100" width="1065" height="720" as="geometry" />
        </mxCell>
        <mxCell id="iMFo7XsTxFiOWqYlgWQJ-17" style="edgeStyle=orthogonalEdgeStyle;rounded=0;orthogonalLoop=1;jettySize=auto;html=1;exitX=0.5;exitY=1;exitDx=0;exitDy=0;" edge="1" parent="1" source="iMFo7XsTxFiOWqYlgWQJ-3" target="iMFo7XsTxFiOWqYlgWQJ-7">
          <mxGeometry relative="1" as="geometry" />
        </mxCell>
        <mxCell id="iMFo7XsTxFiOWqYlgWQJ-39" value="&lt;font style=&quot;font-size: 13px;&quot;&gt;Fetch Medical records&lt;/font&gt;" style="edgeLabel;html=1;align=center;verticalAlign=middle;resizable=0;points=[];" vertex="1" connectable="0" parent="iMFo7XsTxFiOWqYlgWQJ-17">
          <mxGeometry x="0.0826" y="2" relative="1" as="geometry">
            <mxPoint as="offset" />
          </mxGeometry>
        </mxCell>
        <mxCell id="iMFo7XsTxFiOWqYlgWQJ-3" value="User Authentication" style="rounded=0;whiteSpace=wrap;html=1;fontSize=15;" vertex="1" parent="1">
          <mxGeometry x="-129" y="310" width="170" height="40" as="geometry" />
        </mxCell>
        <mxCell id="iMFo7XsTxFiOWqYlgWQJ-4" value="Emergency Contact Integration" style="rounded=0;whiteSpace=wrap;html=1;fontSize=15;" vertex="1" parent="1">
          <mxGeometry x="127.5" y="310" width="190" height="40" as="geometry" />
        </mxCell>
        <mxCell id="iMFo7XsTxFiOWqYlgWQJ-5" value="Feedback System" style="rounded=0;whiteSpace=wrap;html=1;fontSize=15;" vertex="1" parent="1">
          <mxGeometry x="425" y="310" width="170" height="40" as="geometry" />
        </mxCell>
        <mxCell id="iMFo7XsTxFiOWqYlgWQJ-18" style="edgeStyle=orthogonalEdgeStyle;rounded=0;orthogonalLoop=1;jettySize=auto;html=1;exitX=0.5;exitY=1;exitDx=0;exitDy=0;" edge="1" parent="1" source="iMFo7XsTxFiOWqYlgWQJ-7" target="iMFo7XsTxFiOWqYlgWQJ-8">
          <mxGeometry relative="1" as="geometry" />
        </mxCell>
        <mxCell id="iMFo7XsTxFiOWqYlgWQJ-38" value="&lt;font style=&quot;font-size: 13px;&quot;&gt;Detects challan &amp;amp; alerts users&lt;/font&gt;" style="edgeLabel;html=1;align=center;verticalAlign=middle;resizable=0;points=[];" vertex="1" connectable="0" parent="iMFo7XsTxFiOWqYlgWQJ-18">
          <mxGeometry x="0.2093" y="2" relative="1" as="geometry">
            <mxPoint x="55" as="offset" />
          </mxGeometry>
        </mxCell>
        <mxCell id="iMFo7XsTxFiOWqYlgWQJ-7" value="Medical Record Fetching" style="rounded=0;whiteSpace=wrap;html=1;fontSize=15;" vertex="1" parent="1">
          <mxGeometry x="-110" y="430" width="190" height="40" as="geometry" />
        </mxCell>
        <mxCell id="iMFo7XsTxFiOWqYlgWQJ-19" style="edgeStyle=orthogonalEdgeStyle;rounded=0;orthogonalLoop=1;jettySize=auto;html=1;exitX=0.5;exitY=1;exitDx=0;exitDy=0;" edge="1" parent="1" source="iMFo7XsTxFiOWqYlgWQJ-8" target="iMFo7XsTxFiOWqYlgWQJ-9">
          <mxGeometry relative="1" as="geometry" />
        </mxCell>
        <mxCell id="iMFo7XsTxFiOWqYlgWQJ-37" value="&lt;font style=&quot;font-size: 13px;&quot;&gt;Send&lt;/font&gt;&lt;div&gt;&lt;font style=&quot;font-size: 13px;&quot;&gt;request to&amp;nbsp;&lt;/font&gt;&lt;/div&gt;&lt;div&gt;&lt;font style=&quot;font-size: 13px;&quot;&gt;authorities&lt;/font&gt;&lt;/div&gt;" style="edgeLabel;html=1;align=center;verticalAlign=middle;resizable=0;points=[];" vertex="1" connectable="0" parent="iMFo7XsTxFiOWqYlgWQJ-19">
          <mxGeometry x="-0.0351" y="3" relative="1" as="geometry">
            <mxPoint x="-6" y="8" as="offset" />
          </mxGeometry>
        </mxCell>
        <mxCell id="iMFo7XsTxFiOWqYlgWQJ-8" value="User Alert System" style="rounded=0;whiteSpace=wrap;html=1;fontSize=15;" vertex="1" parent="1">
          <mxGeometry x="-42.5" y="520" width="170" height="40" as="geometry" />
        </mxCell>
        <mxCell id="iMFo7XsTxFiOWqYlgWQJ-20" style="edgeStyle=orthogonalEdgeStyle;rounded=0;orthogonalLoop=1;jettySize=auto;html=1;exitX=1;exitY=0.5;exitDx=0;exitDy=0;entryX=0.5;entryY=0;entryDx=0;entryDy=0;" edge="1" parent="1" source="iMFo7XsTxFiOWqYlgWQJ-9" target="iMFo7XsTxFiOWqYlgWQJ-10">
          <mxGeometry relative="1" as="geometry" />
        </mxCell>
        <mxCell id="iMFo7XsTxFiOWqYlgWQJ-35" value="&lt;font style=&quot;font-size: 13px;&quot;&gt;Monitoring challan&lt;/font&gt;&lt;div&gt;&lt;font style=&quot;font-size: 13px;&quot;&gt;status&lt;/font&gt;&lt;/div&gt;" style="edgeLabel;html=1;align=center;verticalAlign=middle;resizable=0;points=[];" vertex="1" connectable="0" parent="iMFo7XsTxFiOWqYlgWQJ-20">
          <mxGeometry x="-0.1286" relative="1" as="geometry">
            <mxPoint x="4" as="offset" />
          </mxGeometry>
        </mxCell>
        <mxCell id="iMFo7XsTxFiOWqYlgWQJ-23" style="edgeStyle=orthogonalEdgeStyle;rounded=0;orthogonalLoop=1;jettySize=auto;html=1;exitX=0;exitY=0.5;exitDx=0;exitDy=0;entryX=1;entryY=0.5;entryDx=0;entryDy=0;" edge="1" parent="1" source="iMFo7XsTxFiOWqYlgWQJ-9" target="iMFo7XsTxFiOWqYlgWQJ-22">
          <mxGeometry relative="1" as="geometry" />
        </mxCell>
        <mxCell id="iMFo7XsTxFiOWqYlgWQJ-36" value="&lt;font style=&quot;font-size: 13px;&quot;&gt;Final Challan&lt;/font&gt;&lt;div&gt;&lt;font style=&quot;font-size: 13px;&quot;&gt;approval&lt;/font&gt;&lt;/div&gt;" style="edgeLabel;html=1;align=center;verticalAlign=middle;resizable=0;points=[];" vertex="1" connectable="0" parent="iMFo7XsTxFiOWqYlgWQJ-23">
          <mxGeometry x="-0.0022" relative="1" as="geometry">
            <mxPoint x="5" y="-12" as="offset" />
          </mxGeometry>
        </mxCell>
        <mxCell id="iMFo7XsTxFiOWqYlgWQJ-9" value="Traffic Authority Integration" style="rounded=0;whiteSpace=wrap;html=1;fontSize=15;" vertex="1" parent="1">
          <mxGeometry x="20" y="630" width="230" height="40" as="geometry" />
        </mxCell>
        <mxCell id="iMFo7XsTxFiOWqYlgWQJ-15" style="edgeStyle=orthogonalEdgeStyle;rounded=0;orthogonalLoop=1;jettySize=auto;html=1;exitX=1;exitY=0.5;exitDx=0;exitDy=0;entryX=1;entryY=0.5;entryDx=0;entryDy=0;" edge="1" parent="1" source="iMFo7XsTxFiOWqYlgWQJ-10" target="iMFo7XsTxFiOWqYlgWQJ-11">
          <mxGeometry relative="1" as="geometry">
            <Array as="points">
              <mxPoint x="770" y="690" />
              <mxPoint x="770" y="125" />
            </Array>
          </mxGeometry>
        </mxCell>
        <mxCell id="iMFo7XsTxFiOWqYlgWQJ-34" value="&lt;font style=&quot;font-size: 13px;&quot;&gt;Notify user of Updates&lt;/font&gt;" style="edgeLabel;html=1;align=center;verticalAlign=middle;resizable=0;points=[];" vertex="1" connectable="0" parent="iMFo7XsTxFiOWqYlgWQJ-15">
          <mxGeometry x="-0.0502" y="-1" relative="1" as="geometry">
            <mxPoint x="-111" y="249" as="offset" />
          </mxGeometry>
        </mxCell>
        <mxCell id="iMFo7XsTxFiOWqYlgWQJ-10" value="Challan Tracking" style="rounded=0;whiteSpace=wrap;html=1;fontSize=15;" vertex="1" parent="1">
          <mxGeometry x="310" y="670" width="170" height="40" as="geometry" />
        </mxCell>
        <mxCell id="iMFo7XsTxFiOWqYlgWQJ-12" value="" style="edgeStyle=orthogonalEdgeStyle;rounded=0;orthogonalLoop=1;jettySize=auto;exitX=0;exitY=0.5;exitDx=0;exitDy=0;html=1;" edge="1" parent="1" source="iMFo7XsTxFiOWqYlgWQJ-11" target="iMFo7XsTxFiOWqYlgWQJ-3">
          <mxGeometry relative="1" as="geometry" />
        </mxCell>
        <mxCell id="iMFo7XsTxFiOWqYlgWQJ-24" value="&lt;font style=&quot;font-size: 13px;&quot;&gt;Login &amp;amp; Verifies&lt;/font&gt;" style="edgeLabel;html=1;align=center;verticalAlign=middle;resizable=0;points=[];" vertex="1" connectable="0" parent="iMFo7XsTxFiOWqYlgWQJ-12">
          <mxGeometry x="-0.1558" y="-3" relative="1" as="geometry">
            <mxPoint as="offset" />
          </mxGeometry>
        </mxCell>
        <mxCell id="iMFo7XsTxFiOWqYlgWQJ-13" style="edgeStyle=orthogonalEdgeStyle;rounded=0;orthogonalLoop=1;jettySize=auto;html=1;exitX=0;exitY=1;exitDx=0;exitDy=0;" edge="1" parent="1" source="iMFo7XsTxFiOWqYlgWQJ-11" target="iMFo7XsTxFiOWqYlgWQJ-4">
          <mxGeometry relative="1" as="geometry">
            <Array as="points">
              <mxPoint x="223" y="150" />
            </Array>
          </mxGeometry>
        </mxCell>
        <mxCell id="iMFo7XsTxFiOWqYlgWQJ-14" style="edgeStyle=orthogonalEdgeStyle;rounded=0;orthogonalLoop=1;jettySize=auto;html=1;exitX=0.5;exitY=1;exitDx=0;exitDy=0;" edge="1" parent="1" source="iMFo7XsTxFiOWqYlgWQJ-11" target="iMFo7XsTxFiOWqYlgWQJ-5">
          <mxGeometry relative="1" as="geometry">
            <Array as="points">
              <mxPoint x="400" y="260" />
              <mxPoint x="510" y="260" />
            </Array>
          </mxGeometry>
        </mxCell>
        <mxCell id="iMFo7XsTxFiOWqYlgWQJ-31" value="&lt;font style=&quot;font-size: 13px;&quot;&gt;Submit Feedback&lt;/font&gt;" style="edgeLabel;html=1;align=center;verticalAlign=middle;resizable=0;points=[];" vertex="1" connectable="0" parent="iMFo7XsTxFiOWqYlgWQJ-14">
          <mxGeometry x="0.2115" y="2" relative="1" as="geometry">
            <mxPoint as="offset" />
          </mxGeometry>
        </mxCell>
        <mxCell id="iMFo7XsTxFiOWqYlgWQJ-16" style="edgeStyle=orthogonalEdgeStyle;rounded=0;orthogonalLoop=1;jettySize=auto;html=1;exitX=1;exitY=1;exitDx=0;exitDy=0;verticalAlign=bottom;" edge="1" parent="1" source="iMFo7XsTxFiOWqYlgWQJ-11">
          <mxGeometry relative="1" as="geometry">
            <mxPoint x="128" y="550" as="targetPoint" />
            <Array as="points">
              <mxPoint x="670" y="150" />
              <mxPoint x="670" y="550" />
            </Array>
          </mxGeometry>
        </mxCell>
        <mxCell id="iMFo7XsTxFiOWqYlgWQJ-33" value="&lt;font style=&quot;font-size: 13px;&quot;&gt;Approves challan lifting&lt;/font&gt;" style="edgeLabel;html=1;align=center;verticalAlign=middle;resizable=0;points=[];" vertex="1" connectable="0" parent="iMFo7XsTxFiOWqYlgWQJ-16">
          <mxGeometry x="0.4415" y="-3" relative="1" as="geometry">
            <mxPoint as="offset" />
          </mxGeometry>
        </mxCell>
        <mxCell id="iMFo7XsTxFiOWqYlgWQJ-11" value="&lt;h1&gt;User&lt;/h1&gt;" style="ellipse;whiteSpace=wrap;html=1;" vertex="1" parent="1">
          <mxGeometry x="310" y="90" width="180" height="70" as="geometry" />
        </mxCell>
        <mxCell id="iMFo7XsTxFiOWqYlgWQJ-22" value="&lt;h1&gt;Traffic Authority&lt;/h1&gt;" style="ellipse;whiteSpace=wrap;html=1;" vertex="1" parent="1">
          <mxGeometry x="-370" y="680" width="240" height="70" as="geometry" />
        </mxCell>
        <mxCell id="iMFo7XsTxFiOWqYlgWQJ-30" value="&lt;font style=&quot;font-size: 13px;&quot;&gt;Manage&amp;nbsp;&lt;/font&gt;&lt;div&gt;&lt;font style=&quot;font-size: 13px;&quot;&gt;Emergency&lt;/font&gt;&lt;div&gt;&lt;font style=&quot;font-size: 13px;&quot;&gt;&amp;nbsp;Contacts&lt;/font&gt;&lt;/div&gt;&lt;/div&gt;" style="edgeLabel;html=1;align=center;verticalAlign=middle;resizable=0;points=[];" vertex="1" connectable="0" parent="1">
          <mxGeometry x="231.36040083816897" y="124.99990687819673" as="geometry">
            <mxPoint x="-11" y="109" as="offset" />
          </mxGeometry>
        </mxCell>
      </root>
    </mxGraphModel>
  </diagram>
</mxfile>
